<svg id="Layer_2" xmlns="http://www.w3.org/2000/svg" viewBox="0 0 1560 1560"><style>.st0{fill:#af956e}.st1{fill:#f2eee8}.st2{fill-rule:evenodd;clip-rule:evenodd;fill:#af956e}</style><path class="st0" d="M628.9 1537.8c4.5-28.5 16.7-52.5 25.4-73.8-17.3 31.6-42.1 58.8-65.5 86.5l49.3-94.7c-.6-.3-1.1-.7-1.7-1-4.5 8.1-8.9 16.2-13.4 24.3-12.2 21.8-22.7 44.6-40.1 63-5.7 6-12.1 11.3-18.2 16.9l-1.6-1.1c8.8-16.2 17.8-32.4 26.4-48.7 8.7-16.4 17.1-32.9 24.6-49.9-9.5 9.3-16.1 20.4-21 32.5-10.2 25.2-27.3 45.5-45 65.4-.6-.3-1.2-.7-1.8-1 12.8-24.5 25.6-49.1 38.3-73.6-.6-.4-1.2-.8-1.9-1.1-16.1 26.4-31.5 53.3-53.3 75.5-.7-.4-1.4-.9-2.1-1.3l33.8-65c-16.1 23.4-33.5 45.5-56.7 62.6 11.3-26.5 31.5-47.6 42.3-70-10.3 11.8-22 27.4-35.9 40.7-13.7 13.2-29.7 24.1-44.7 36l-1.5-1.5c17.6-22 35.2-44.1 52.5-65.8-2.1 1.5-5.1 3.1-7.5 5.2-12.7 10.9-25 22.2-38.1 32.7-8.6 6.8-18.1 12.4-28.2 17.4 10.8-14.3 21.5-28.7 31.8-42.3-8.5 3.9-17.7 8.2-26.9 12.5 7.3-15.1 23.5-20.3 32.8-33.8-8.1 1.3-16.2 2.6-25 4 16.8-15.8 37.5-19.4 59.3-20.2-.1-.6-.2-1.2-.3-1.9-8 .1-16.1.3-25.7.4 8.1-3.9 14.7-7.8 22.9-8.4 11.2-.7 22.3-1.9 33.5-4.1-9-1.3-18-2.7-27-4 0-.8.1-1.5.1-2.2 20.7-8.3 42.7-6.6 64.6-7.1-5-4.8-6.1-5-29.9-5 5.5-4.1 19.2-7 31.2-6.2 10.9.7 21.8 1.8 32.7 2.7.1-.8.1-1.7.2-2.5l-35.8-2.8c13.6-6.8 27.4-2 42.4-2.2-8.2-4.1-17.8-.6-23.2-9.6 12.9 2.4 25.9 4.7 38 6.9-3.6-2.8-8-6.2-12.4-9.7.2-.7.4-1.5.5-2.2 5.3 1.1 10.5 2.1 15.8 3.3 5.6 1.3 11.1 2.7 17.6 4.3-1.3-1.8-2.2-2.9-3.5-4.8 10.6 2.2 20.4 4.2 30.2 6.2-.2-.3-.7-1-2.1-3.1 5.3 2 9.5 3.5 14.1 5.2-.6-.9-1.1-1.7-2-3 1.2 0 2.3-.3 3.1 0 16 6.6 33.5 9.2 48.3 18.9 12.3 8.1 24.7 15.9 37.3 23.5 11.5 6.9 9.7 14.5-.8 20.8-1.4-1.2-3-2.4-4.4-3.6-4 1.4-7.9 2.8-12.8 4.5 1.9-4.5 3.4-8.1 5-11.7-.3-.2-.7-.3-1-.5-3.2 4.4-6.5 8.8-9.7 13.2.6-9 5.5-17.2 1.3-25-3.4 6.4-6.5 13.4-10.4 19.8-3.9 6.4-8.6 12.4-13.5 18.1 1.5-13.1 13.9-22.7 10.6-37.7-9.4 14.5-18.3 28.3-27.2 42.1-.5-.3-1.1-.6-1.7-.9 6.3-11.5 11.8-23.4 13-38.3-10.3 17.8-19.7 34-29.1 50.3-.7-.3-1.4-.7-2.1-1 6.9-16.3 13.8-32.6 20.8-48.9-.4-.2-.8-.3-1.2-.5l-33 51c-.3-.2-.5-.4-.8-.6 6.9-19.2 13.8-38.5 20.7-57.7l-1.8-.9c-9.3 24.4-20.7 47.5-41.2 66.5 7.8-22 15.1-42.6 22.4-63.3-.8-.3-1.7-.7-2.5-1-5.7 21.4-16.3 40.4-29.3 58-3 4-6.9 7.4-11.5 10.4 8.5-21.1 16.9-42.3 25.4-63.4-.6-.2-1.1-.5-1.7-.7l-40.5 78z"/><path class="st0" d="M931.1 1537.8c-4.5-28.5-16.7-52.5-25.4-73.8 17.3 31.6 42.1 58.8 65.5 86.5l-49.3-94.7c.6-.3 1.1-.7 1.7-1 4.5 8.1 8.9 16.2 13.4 24.3 12.2 21.8 22.7 44.6 40.1 63 5.7 6 12.1 11.3 18.2 16.9l1.6-1.1c-8.8-16.2-17.8-32.4-26.4-48.7-8.7-16.4-17.1-32.9-24.6-49.9 9.5 9.3 16.1 20.4 21 32.5 10.2 25.2 27.3 45.5 45 65.4.6-.3 1.2-.7 1.8-1-12.8-24.5-25.6-49.1-38.3-73.6.6-.4 1.2-.8 1.9-1.1 16.1 26.4 31.5 53.3 53.3 75.5.7-.4 1.4-.9 2.1-1.3l-33.8-65c16.1 23.4 33.5 45.5 56.7 62.6-11.3-26.5-31.5-47.6-42.3-70 10.3 11.8 22 27.4 35.9 40.7 13.7 13.2 29.7 24.1 44.7 36l1.5-1.5c-17.6-22-35.2-44.1-52.5-65.8 2.1 1.5 5.1 3.1 7.5 5.2 12.7 10.9 25 22.2 38.1 32.7 8.6 6.8 18.1 12.4 28.2 17.4-10.8-14.3-21.5-28.7-31.8-42.3 8.5 3.9 17.7 8.2 26.9 12.5-7.3-15.1-23.5-20.3-32.8-33.8 8.1 1.3 16.2 2.6 25 4-16.8-15.8-37.5-19.4-59.3-20.2.1-.6.2-1.2.3-1.9 8 .1 16.1.3 25.7.4-8.1-3.9-14.7-7.8-22.9-8.4-11.2-.7-22.3-1.9-33.5-4.1 9-1.3 18-2.7 27-4 0-.8-.1-1.5-.1-2.2-20.7-8.3-42.7-6.6-64.6-7.1 5-4.8 6.1-5 29.9-5-5.5-4.1-19.2-7-31.2-6.2-10.9.7-21.8 1.8-32.7 2.7-.1-.8-.1-1.7-.2-2.5l35.8-2.8c-13.6-6.8-27.4-2-42.4-2.2 8.2-4.1 17.8-.6 23.2-9.6-12.9 2.4-25.9 4.7-38 6.9 3.6-2.8 8-6.2 12.4-9.7-.2-.7-.4-1.5-.5-2.2-5.3 1.1-10.5 2.1-15.8 3.3-5.6 1.3-11.1 2.7-17.6 4.3 1.3-1.8 2.2-2.9 3.5-4.8-10.6 2.2-20.4 4.2-30.2 6.2.2-.3.7-1 2.1-3.1-5.3 2-9.5 3.5-14.1 5.2.6-.9 1.1-1.7 2-3-1.2 0-2.3-.3-3.1 0-16 6.6-33.5 9.2-48.3 18.9-12.3 8.1-24.7 15.9-37.3 23.5-11.5 6.9-9.7 14.5.8 20.8 1.4-1.2 3-2.4 4.4-3.6 4 1.4 7.9 2.8 12.8 4.5-1.9-4.5-3.4-8.1-5-11.7.3-.2.7-.3 1-.5 3.2 4.4 6.5 8.8 9.7 13.2-.6-9-5.5-17.2-1.3-25 3.4 6.4 6.5 13.4 10.4 19.8 3.9 6.4 8.6 12.4 13.5 18.1-1.5-13.1-13.9-22.7-10.6-37.7 9.4 14.5 18.3 28.3 27.2 42.1.5-.3 1.1-.6 1.7-.9-6.3-11.5-11.8-23.4-13-38.3 10.3 17.8 19.7 34 29.1 50.3.7-.3 1.4-.7 2.1-1-6.9-16.3-13.8-32.6-20.8-48.9.4-.2.8-.3 1.2-.5l33 51c.3-.2.5-.4.8-.6-6.9-19.2-13.8-38.5-20.7-57.7l1.8-.9c9.3 24.4 20.7 47.5 41.2 66.5-7.8-22-15.1-42.6-22.4-63.3.8-.3 1.7-.7 2.5-1 5.7 21.4 16.3 40.4 29.3 58 3 4 6.9 7.4 11.5 10.4-8.5-21.1-16.9-42.3-25.4-63.4.6-.2 1.1-.5 1.7-.7l40.5 78z"/><path transform="rotate(-45.001 779.995 780.013)" class="st1" d="M247.4 247.4h1065.1v1065.1H247.4z"/><path class="st0" d="M780 29.7L1530.3 780 780 1530.3 29.7 780 780 29.7m0-5.7L24 780l756 756 756-756L780 24z"/><path class="st0" d="M780 5.7L1554.3 780 780 1554.3 5.7 780 780 5.7m0-5.7L0 780l780 780 780-780L780 0z"/><path class="st2" d="M1031.2 305.4c-5.3-5.5-10.1-11.3-11.7-14-1.6-2.7-15.9-22.5-19.2-29.7-1.5-3.2-15.2-27.4-16.9-30.8-1.6-3.4-1.8-4-2.9-5.3-1-1.2-7.5-8.1-8.6-9.1-1-1.1-3.3-3.4-5.4-4.8-2.1-1.4-2.8-2.8-5.2-5.2-.8-.7-2.7-2.7-3.5-3.5-7.9-7.9-19.8-18.8-23.8-23.8-4-5.1-9.5-10.6-10.5-11.6-.8.1-3.1.7-4.6 2.3-1.5 1.6-6.2 2-6.5.6-.4-1.5 3-5.4 5.6-7.9-.3-.3-.9-1.1-1.5-1.9-1.7-2.5-1.6-1.4-2.3-1.2-1.2.7-3.1 2.6-6.5 3-3.4.3-.7-5.2.6-6.4 4-4-4-7.4-5.8-10.5-1.9-3.1-5.5-6.7-7.5-8.7-4.3-1.8-6.9-6.9-7.8-7.8l-9.8-9.8c-1.9-1.9-5.1-7.3-9.2-10.3-4-3-8.1-8.1-13.5-13.5-3.3-3.3-9.2-7.6-10.3-10.3-1.1-2.7-2.9-2.9-4.1-4.1-2.3-2.3-5.8-6.2-7-8.2-1.2-2-9-9.9-11.6-11.6-2.6-1.7-13.9-14.1-15.2-15.2-1.3-1.1-6.1-4.6-8.1-8.1s-8.9-5-4.9-9c2.5-2.5 6.4 3.2 6.7 3.8.3.6.8 1.2 2.9 2.9 2.1 1.7 6.2 6.6 8.1 9.3 1.9 2.7 4.4 2.1 6.4 5.2 2.1 3.1 6.6 6.6 11.2 11.2 1.2 1.2 6.7 8.1 6.8 8 0 .2 4.1 3.5 6.4 6.5 2.3 2.9 6 5.3 8.7 7.5 2.7 2.2 5.9 7.4 7.5 8.7 1.6 1.3 3.8 3.8 5.1 5.1 1 1 4 4.4 4.3 5.4.3 1 1.4 2 2.8 2.7 1.4.8 12.7 12.4 15.2 14.2 2.5 1.7 3.5 3.5 4.1 5.2.6 1.7 2.9 2.9 4.1 4.1 3.8 3.8 10.7 11.2 12.2 12.2s3.1 4.1 4.3 5.5c1.6 1.9 2.9 2.3 3.8 2.6.9.3 1.6.3 2.9-.8 1.3-1.2 5.2-5 7.5-2.7 1.9 1.9-3.5 8.2-5.2 9.9.2 1.3 1.6 3 2.4 3.3.9-.7 8-6.1 9.2-6.8 1.2-.7 2.5.1 2.8.8.3.6-.2 2-1.8 5.2s-3.8 5-5 6.2c0 .1 1.9 1.1 3 2.5s1.5 3.4 4.4 5.5c2.9 2.1 4.2 3.6 6 5.4 1.4 0 4.3-2 6.9-3.5 3.1-1.8 6.3-1 9.4 0 3 1 8.9 4.9 11 7.5 2.2 2.7 4.6 6.9 6.6 9.4 2 2.4 4.7 7.1 6 9.9 1.3 2.8 2.4 7.8 3.9 10.2.9 1.4 3.1 9.4 3.8 10.8.4.4.8 4.5.8 4.5 2.4 3 3.5 3.6 5.8 5.9 2.5 2.5 4.9 5.7 8.1 9 3.4 3.4 4.6 5.3 7.4 8.1 1.3 1.2 4.7 4.5 6.6 6.4 3.8-5.2 12.5-9.1 14.1-9.1 1.1-.3 6.7-1.5 8.9-1s8.5 2.3 10.5 3.5c1.9 1.2 6.6 5.2 7.9 7.1 1.2 1.9 4 6.6 4.4 9.8.4 1.6-.3 6.9-2.1 9.9s-4.7 3.9-6.1 5.3c-2.5 2.5-6.3 2.5-9.4 3.5 1.4 1.4 9.4 10.5 11.1 12.2l6.8 6.8 13.6 13.6c.9 1 3.5 3.9 5.8 6.4 2.3 2.4 7.6 7.1 11 7.2 3.4.1 12.9-.7 14.6-.8 1.6-.4 4.9-.4 7.6-.6 2.7-.1 6-1.5 9.3-2.3 1.6-.5 7.2-2.4 9.9-2.9 2.7-.6 8-2.4 11.3-4.6 1.4-.8 3.8-1.1 2.7 2.3.1.2-.7 2.5-1.2 4.7s-2.8 16.2-2.9 18c-.1 1.8-.6 6.4-.6 8.7.1 2.3 1.1 7 .6 7.5.4 1.8-.1 5 .6 7.6.7 2.6 2.1 7.8 2.3 10.4.2 2.6 1.8 11.8 2.1 13.8.4 1.7-.6 5.1-2.4 3.4s-4.6-5.2-7.3-7.3c-2.7-2.2-9.6-8.4-11.1-9.9.2-.2-8.9-8.8-11.1-11.1-2.2-2.3-5.7-6.5-8.6-9.5-1.8-1.8-7.5-6.7-8.5-7.7-4-4-8.3-9.8-9.6-10.8-2.7-2.7-5.1-4.4-7.4-6.4-1.5-1.2-3.2-1.7-4.5-2.1-2.8-.8-4.7-1.8-5.3-1.9-1.7-.3-7.1-2-9.5-2.4-2.4-.4-5.9-2.3-7.5-3.2-1.6-.9-6-3.4-7.2-4.2-1.2-.8-7.8-5.3-10.3-7.1-2.2-2-6.6-5.9-7.9-7.2zm8.8.6c2.4 2.1 13.4 10.1 16.9 12.3 3.5 2.2 8.7 3.6 9.9 4 1.2.5 4.5 2.4 7 0-1.4-1.4-1.8-2.9-3.8-4.9-1.5-1.5-4.1-3.2-5.5-4.4s-4.4-4.3-6.4-6.4c-2-2.1-10.2-11.4-11.9-13-1.2-1.2-12.4-12.2-16.8-16.7-3.9-3.9-7-7.1-9.6-9.7-.3.2-.7 2.4-.8 3.2-.6 3 1.3 8.7 3.1 11.8.4.7 2.5 5.2 3.5 7 1 1.8 5.1 7 6.4 8.7 1.2 1.7 4.7 4.8 8 8.1zm-27.7-35.8c.1-1.2.1-6.6 1.8-8.3-2.3-2.3-14.4-15.6-16.5-17.8 3.4 6.9 8.4 15.3 8.9 17 .4 1.7 4.8 9.3 5.8 9.1zM1131 374.1c4-.6 10.4-8.7 7.8-11.3-1.5 1.5-3.7 3.4-5.8 5.5-1.3 1.2-5.2 6.3-2 5.8zm-1.1-16.7c-3.9 3.8-7.6 8.1-6.1 9.6 1.3 1.7 7.8-4.4 8.9-5.5 6.3-6.5 8.4-9.4 5.5-11.2-.8-.5-5 3.9-8.3 7.1zm7.5 24.2c2.1-2.1 5-5.7 4.7-6-.8-.8-3.4.6-4.2 1.2-1.7 1.4-2.9 3.1-.5 4.8zm-18.8-20.3c4.2-2.5 9.3-7.7 13-11.4 2.3-2.3 3.5-4 5.2-5.8 1.8-1.8 3.8-5.1 3.6-6.1-1.2-1.2-1.5-1.7-2.4-.8-.9.9-4.5 4.4-6.2 6.1-3.5 3.5-7.4 6.7-10.8 10.2-3 3-5.4 4.7-2.4 7.8zm-4.5-7.3c8.1-8 18.8-17.6 27.7-26.5-1.4-1.4-6.4.2-8.5 2.3-2.1 2.1-6.8 4.8-9.5 7.6-.9 1.4-6.6 6.6-7.6 7.6-.9 1-2.8 2.8-4.3 4.3-2.2 2.2-1.3 2.9.5 4.8.8.7 1.4.2 1.7-.1zm-7.6-5.7c2.4-2.4 7.1-6.4 10.3-9.7 1.8-1.8 5.1-3.1 2.9-5.3-.8-.4-1.6-.6-2.3 0-1 1-3 2.2-4 3.2-.9 1-5.4 4.9-5.9 5.5-2.8 2.8-3.8 3.5-1 6.3zm-4.8-7c2-1.6 5.5-5.9 5.8-6.2-1.4-1.3-5.2 1.3-6.6 2.6-2.9 2.8-1.2 5.2.8 3.6zm-73.2-73.9c1.6-2.1 7.7-3.1 9.6.8 2 3.8.3 6.8.9 7.4.6.7 2 1.4 5.2 2.5 3.2 1.2 8.2.5 11.4-5.4 2.2-2.2 1.5-2.1 1.7-2.9.2-.8.2-4.1-.6-6.2-1.4-3.6-6.7-9.6-9.8-11.3-8.8-4.7-18-.6-21.1 2.1-1.7 1.4-3.2 4.5-4.3 5.5 1.9 2.6 5.2 7 7 7.5zM972.7 210c2.2 1.5 3.6 4.2 5.1 5.2.8-1.3-.3-6-1.3-7.6-1-1.6-3.1-5.8-4.1-9.3-1-3.5-5.2-9.2-6.7-10.7-4.3-4.3-7.1-7.7-10.9-8.3-3.8-.6-7.1 3.3-8.7 4.9 1.6 1.6 3.8 1.7 5.2 4.1 1.5 2.3 3.2 4.5 3.6 4.8.5.7 3 3.2 5.2 5.2 2.2 2.1 3 3.1 4 4 1.8 1.7 5.4 5.5 8.6 7.7zM1244.8 517.8c-1.8-2.5-6.4-9.1-7.1-10.3-.8-1.2-3.3-5.6-4.2-7.2s-2.8-5.1-3.2-7.5c-.4-2.4-2.2-7.8-2.4-9.5-.1-.6-1-2.5-1.9-5.3-.4-1.3-.9-3.1-2.1-4.5-2-2.3-3.7-4.8-6.4-7.4-1-1.2-6.7-5.5-10.8-9.6-1-1-5.9-6.8-7.7-8.5-3-3-7.2-6.5-9.5-8.6-2.3-2.2-10.9-11.2-11.1-11.1-1.5-1.5-7.7-8.4-9.9-11.1-2.2-2.7-5.7-5.5-7.3-7.3-1.7-1.8 1.7-2.8 3.4-2.4 2.1.4 11.2 1.9 13.8 2.1 2.6.2 7.8 1.6 10.4 2.3 2.6.7 5.8.2 7.6.6.5-.5 5.2.5 7.5.6 2.3.1 6.9-.4 8.7-.6 1.8-.1 15.8-2.4 18-2.9 2.2-.5 4.5-1.2 4.7-1.2 3.4-1.2 3.1 1.3 2.3 2.7-2.2 3.3-4.1 8.6-4.6 11.3-.6 2.7-2.5 8.4-2.9 9.9-.8 3.2-2.2 6.6-2.3 9.3-.1 2.7-.2 6-.6 7.6 0 1.6-.8 11.1-.8 14.6s4.7 8.7 7.2 11c2.4 2.3 5.4 4.9 6.4 5.8l13.6 13.6 6.8 6.8c1.7 1.7 10.8 9.7 12.2 11.1 1.1-3.1 1.1-6.9 3.5-9.4 1.4-1.4 2.2-4.2 5.3-6.1 3-1.8 8.3-2.5 9.9-2.1 3.1.4 7.9 3.2 9.8 4.4 1.9 1.2 5.8 5.9 7.1 7.9 1.2 1.9 3 8.3 3.5 10.5.5 2.2-.7 7.8-1 8.9 0 1.6-3.9 10.2-9.1 14.1 2 2 5.3 5.4 6.4 6.6 2.9 2.9 4.7 4 8.1 7.4 3.3 3.3 6.5 5.6 9 8.1 2.3 2.3 3 3.5 5.9 5.8 0 0 4.1.5 4.5.8 1.4.7 9.4 2.9 10.8 3.8 2.4 1.5 7.4 2.7 10.2 3.9 2.8 1.3 7.5 4 9.9 6 2.4 2 6.7 4.5 9.4 6.6 2.7 2.2 6.5 8 7.5 11s1.8 6.3 0 9.4c-1.5 2.6-3.5 5.6-3.5 6.9 1.8 1.8 3.3 3.1 5.4 6 2.1 2.9 4.1 3.2 5.5 4.4 1.4 1.1 2.4 3 2.5 3 1.2-1.2 3-3.3 6.2-5 3.2-1.6 4.6-2.1 5.2-1.8s1.5 1.6.8 2.8c-.7 1.2-6.1 8.3-6.8 9.2.4.8 2.1 2.2 3.3 2.4 1.7-1.7 8-7.1 9.9-5.2 2.4 2.4-1.5 6.2-2.7 7.5-1.2 1.3-1.2 2-.8 2.9.3.9.7 2.2 2.6 3.8 1.4 1.2 4.5 2.8 5.5 4.3s8.4 8.4 12.2 12.2c1.1 1.1 2.4 3.5 4.1 4.1 1.7.6 3.5 1.6 5.2 4.1 1.7 2.5 13.4 13.8 14.2 15.2.8 1.4 1.7 2.5 2.7 2.8 1 .3 4.3 3.2 5.4 4.3 1.3 1.3 3.8 3.5 5.1 5.1 1.3 1.6 6.5 4.8 8.7 7.5 2.2 2.7 4.6 6.5 7.5 8.7 2.9 2.3 6.3 6.4 6.5 6.4-.1.1 6.7 5.6 8 6.8 4.6 4.6 8.1 9.1 11.2 11.2 3.1 2.1 2.5 4.5 5.2 6.4 2.7 1.9 7.6 6 9.3 8.1 1.7 2.1 2.3 2.6 2.9 2.9.6.3 6.3 4.2 3.8 6.7-4 4-5.5-2.9-9-4.9s-7.1-6.9-8.1-8.1c-1.1-1.3-13.4-12.5-15.2-15.2-1.7-2.6-9.7-10.4-11.6-11.6-2-1.2-5.8-4.7-8.2-7-1.1-1.1-1.4-3-4.1-4.1-2.7-1.1-7-7-10.3-10.3-5.4-5.4-10.5-9.5-13.5-13.5s-8.3-7.2-10.3-9.2l-9.8-9.8c-1-1-6-3.5-7.8-7.8-2-2-5.6-5.7-8.7-7.5-3.1-1.9-6.6-9.8-10.5-5.8-1.3 1.3-6.8 4-6.4.6.3-3.4 2.2-5.2 3-6.5.2-.7 1.3-.6-1.2-2.3-.8-.6-1.6-1.1-1.9-1.5-2.5 2.5-6.4 6-7.9 5.6-1.5-.4-1.1-5.1.6-6.5 1.6-1.5 2.2-3.8 2.3-4.6-1-1-6.5-6.5-11.6-10.5s-16-16-23.8-23.8c-.8-.8-2.8-2.7-3.5-3.5-2.4-2.4-3.8-3.1-5.2-5.2-1.4-2.1-3.8-4.4-4.8-5.4-1.1-1-7.9-7.5-9.1-8.6-1.2-1.1-1.9-1.3-5.3-2.9-3.4-1.6-27.6-15.4-30.8-16.9-7.1-3.3-27-17.6-29.7-19.2-2.7-1.6-8.5-6.4-14-11.7-1.5-1-5.4-5.4-7.2-7.9zm14.6 7.6c1.8 1.4 7 5.4 8.7 6.4 1.8 1 6.3 3.1 7 3.5 3.1 1.8 8.8 3.7 11.8 3.1.8-.2 3-.5 3.2-.8-2.6-2.6-5.9-5.8-9.7-9.6-4.4-4.4-15.5-15.6-16.7-16.8-1.7-1.7-10.9-9.9-13-11.9-2.1-2-5.2-5-6.4-6.4-1.2-1.4-2.9-4-4.4-5.5-2-2-3.5-2.4-4.9-3.8-2.4 2.4-.5 5.8 0 7 .5 1.2 1.9 6.4 4 9.9 2.2 3.5 10.1 14.5 12.3 16.9 3.2 3.1 6.3 6.6 8.1 8zm36.7 25.4c1.7.4 10.1 5.5 17 8.9-2.2-2.2-15.4-14.2-17.8-16.5-1.7 1.7-7.1 1.6-8.3 1.8-.2.9 7.4 5.3 9.1 5.8zm-107.2-126.5c2.1-2.1 4-4.3 5.5-5.8-2.6-2.6-10.6 3.8-11.3 7.8-.5 3.1 4.6-.8 5.8-2zm18-5.3c-1.8-2.8-4.7-.8-11.2 5.5-1.1 1.1-7.3 7.6-5.5 8.9 1.5 1.5 5.8-2.2 9.6-6.1 3.2-3.2 7.6-7.5 7.1-8.3zm-26.5.3c.6-.8 2.1-3.4 1.2-4.2-.3-.3-3.9 2.6-6 4.7 1.7 2.4 3.4 1.2 4.8-.5zm23.3 16.9c3.5-3.5 6.7-7.4 10.2-10.8 1.7-1.7 5.2-5.3 6.1-6.2.9-.9.4-1.2-.8-2.4-1-.3-4.3 1.8-6.1 3.6-1.7 1.7-3.5 2.9-5.8 5.2-3.8 3.8-8.9 8.8-11.4 13 3.1 3 4.8.6 7.8-2.4zm-.5 8.6c1.9 1.8 2.6 2.7 4.8.5 1.4-1.4 3.3-3.4 4.3-4.3 1-1 6.2-6.7 7.6-7.6 2.8-2.7 5.4-7.4 7.6-9.5 2.1-2.1 3.7-7.1 2.3-8.5-8.9 8.9-18.4 19.6-26.5 27.7-.4.3-.9 1-.1 1.7zm12 5c.6-.5 4.5-5 5.5-5.9 1-.9 2.2-3 3.2-4 .6-.7.4-1.6 0-2.3-2.2-2.2-3.5 1.1-5.3 2.9-3.2 3.2-7.3 7.9-9.7 10.3 2.8 2.7 3.6 1.7 6.3-1zm4.3 6.5c1.4-1.4 3.9-5.2 2.6-6.6-.3.3-4.6 3.8-6.2 5.8-1.6 2 .8 3.7 3.6.8zm77.6 79.4c1-1 4.1-2.6 5.5-4.3 2.7-3.2 6.8-12.3 2.1-21.1-1.7-3.1-7.7-8.5-11.3-9.8-2.1-.8-5.4-.8-6.2-.6-.8.2-.6-.5-2.9 1.7-5.8 3.2-6.5 8.2-5.4 11.4 1.2 3.2 1.8 4.6 2.5 5.2.7.6 3.6-1.1 7.4.9 3.8 2 2.8 8.1.8 9.6.7 1.8 5.1 5.2 7.5 7zm57.7 57.2c1 1.1 2 1.8 4 4 2.1 2.2 4.5 4.7 5.2 5.2.4.4 2.5 2.1 4.8 3.6s2.5 3.7 4.1 5.2c1.6-1.6 5.5-4.9 4.9-8.7-.6-3.8-4-6.6-8.3-10.9-1.5-1.5-7.2-5.7-10.7-6.7-3.5-1-7.8-3.1-9.3-4.1-1.6-1-6.3-2.1-7.6-1.3 1.1 1.6 3.7 2.9 5.2 5.1 2.3 3.4 6.2 7 7.7 8.6zM1167.2 392.5c-1.3-.7-3.7-3.7-4.6-5.8-1-2.1-2.5-4.6-3.8-6.8-1.4-2.2-2.8-8.7-2.6-11.2.2-2.5.6-11 4.1-18.1 1.1-2.1 2.3-3.1 5.3-.5 4.3 4 7.8 7 9.5 8.7 1 1 2.3 2.6 3.1 3 1.2 1.2 2.2.3 3-.7 3.5-3.5 8.8-6.5 14.5-6.4 2.6 0 6.8 1.7 7.6 8.1.5 4-3.3 11.3-4.1 12.8-.8 1.5-1.8 4.1-2.4 4.7l4.3 4.3 7.1 7.1c3 3 .1 3.7-2 4.9-2.2 1.2-7.5 2.5-9.8 2.9-2.1.5-9.5.6-11.1.6-1.6 0-6-1-5.8-1.2-1.7-.8-3-.7-5.2-1.7-2.3-1-6.3-4.3-7.1-4.7zm5.9-2.3c.3.5 0 2.3 2.5 0s4.2-4.3 5.2-5.3c3.7-3.7 6.7-5.6 10-8.8 1.3-1.3 8.3-8.8 6.2-10.8-.2-.6-3 2-4.7 3.5l-11.8 11.8c-2.6 2.5-10.1 6.9-7.4 9.6m-4.7-4.3c3-.7 7.2-6.4 10-9.2l14.4-14.4c-2.2-2.2-8.3 3.6-10.5 5.8-1.4 1-3.6 3.6-5.2 5.2l-6 6c-2.2 2.3-5.5 3.8-2.7 6.6zm11.1 8.4c1.3.1 3.5.6 4.1-.6l6.1-6.1c1.5-1.5 1.7-3.9 0-3.6-2-.5-12 8.6-10.2 10.3m-14.6-15.7c2.2-2.2 6.2-5 9.2-8 4.1-4.1-.2-4.2-1.7-3-2.2 2.3-10.6 7.8-7.5 11m24.4 16.3c1.3-.6 1.5.9 4.3-1.9 1.6-1.6 5-3.9 3.3-5.6-.7.6-9.2 5.8-7.6 7.5m-26.1-24.1c2-1.9 9.6-7.6 7.5-9.7-1.2-.5-10.8 6.4-7.5 9.7z"/><g><path class="st2" d="M309.4 522.5c-5.5 5.3-11.3 10.1-14 11.7-2.7 1.6-22.5 15.9-29.7 19.2-3.2 1.5-27.4 15.2-30.8 16.9-3.4 1.6-4 1.8-5.3 2.9-1.2 1-8.1 7.5-9.1 8.6-1.1 1-3.4 3.3-4.8 5.4-1.4 2.1-2.8 2.8-5.2 5.2-.7.8-2.7 2.7-3.5 3.5-7.9 7.9-18.8 19.8-23.8 23.8s-10.6 9.5-11.6 10.5c.1.8.7 3.1 2.3 4.6 1.6 1.5 2 6.2.6 6.5-1.5.4-5.4-3-7.9-5.6-.3.3-1.1.9-1.9 1.5-2.5 1.7-1.4 1.6-1.2 2.3.7 1.2 2.6 3.1 3 6.5.3 3.4-5.2.7-6.4-.6-4-4-7.4 4-10.5 5.8-3.1 1.9-6.7 5.5-8.7 7.5-1.8 4.3-6.9 6.9-7.8 7.8l-9.8 9.8c-1.9 1.9-7.3 5.1-10.3 9.2-3 4-8.1 8.1-13.5 13.5-3.3 3.3-7.6 9.2-10.3 10.3-2.7 1.1-2.9 2.9-4.1 4.1-2.3 2.3-6.2 5.8-8.2 7-2 1.2-9.9 9-11.6 11.6-1.7 2.6-14.1 13.9-15.2 15.2-1.1 1.3-4.6 6.1-8.1 8.1-3.5 2.1-5 8.9-9 4.9-2.5-2.5 3.2-6.4 3.8-6.7.6-.3 1.2-.8 2.9-2.9 1.7-2.1 6.6-6.2 9.3-8.1 2.7-1.9 2.1-4.4 5.2-6.4 3.1-2.1 6.6-6.6 11.2-11.2 1.2-1.2 8.1-6.7 8-6.8.2 0 3.5-4.1 6.5-6.4 2.9-2.3 5.3-6 7.5-8.7 2.2-2.7 7.4-5.9 8.7-7.5 1.3-1.6 3.8-3.8 5.1-5.1 1-1 4.4-4 5.4-4.3 1-.3 2-1.4 2.7-2.8.8-1.4 12.4-12.7 14.2-15.2 1.7-2.5 3.5-3.5 5.2-4.1 1.7-.6 2.9-2.9 4.1-4.1 3.8-3.8 11.2-10.7 12.2-12.2s4.1-3.1 5.5-4.3c1.9-1.6 2.3-2.9 2.6-3.8.3-.9.3-1.6-.8-2.9-1.2-1.3-5-5.2-2.7-7.5 1.9-1.9 8.2 3.5 9.9 5.2 1.3-.2 3-1.6 3.3-2.4-.7-.9-6.1-8-6.8-9.2-.7-1.2.1-2.5.8-2.8.6-.3 2 .2 5.2 1.8s5 3.8 6.2 5c.1 0 1.1-1.9 2.5-3s3.4-1.5 5.5-4.4c2.1-2.9 3.6-4.2 5.4-6 0-1.4-2-4.3-3.5-6.9-1.8-3.1-1-6.3 0-9.4 1-3 4.9-8.9 7.5-11 2.7-2.2 6.9-4.6 9.4-6.6 2.4-2 7.1-4.7 9.9-6 2.8-1.3 7.8-2.4 10.2-3.9 1.4-.9 9.4-3.1 10.8-3.8.4-.4 4.5-.8 4.5-.8 3-2.4 3.6-3.5 5.9-5.8 2.5-2.5 5.7-4.9 9-8.1 3.4-3.4 5.3-4.6 8.1-7.4 1.2-1.3 4.5-4.7 6.4-6.6-5.2-3.8-9.1-12.5-9.1-14.1-.3-1.1-1.5-6.7-1-8.9s2.3-8.5 3.5-10.5c1.2-1.9 5.2-6.6 7.1-7.9 1.9-1.2 6.6-4 9.8-4.4 1.6-.4 6.9.3 9.9 2.1s3.9 4.7 5.3 6.1c2.5 2.5 2.5 6.3 3.5 9.4 1.4-1.4 10.5-9.4 12.2-11.1l6.8-6.8 13.6-13.6c1-.9 3.9-3.5 6.4-5.8 2.4-2.3 7.1-7.6 7.2-11 .1-3.4-.7-12.9-.8-14.6-.4-1.6-.4-4.9-.6-7.6-.1-2.7-1.5-6-2.3-9.3-.5-1.6-2.4-7.2-2.9-9.9-.6-2.7-2.4-8-4.6-11.3-.8-1.4-1.1-3.8 2.3-2.7.2-.1 2.5.7 4.7 1.2s16.2 2.8 18 2.9c1.8.1 6.4.6 8.7.6 2.3-.1 7-1.1 7.5-.6 1.8-.4 5 .1 7.6-.6 2.6-.7 7.8-2.1 10.4-2.3 2.6-.2 11.8-1.8 13.8-2.1 1.7-.4 5.1.6 3.4 2.4-1.7 1.8-5.2 4.6-7.3 7.3-2.2 2.7-8.4 9.6-9.9 11.1-.2-.2-8.8 8.9-11.1 11.1-2.3 2.2-6.5 5.7-9.5 8.6-1.8 1.8-6.7 7.5-7.7 8.5-4 4-9.8 8.3-10.8 9.6-2.7 2.7-4.4 5.1-6.4 7.4-1.2 1.5-1.7 3.2-2.1 4.5-.8 2.8-1.8 4.7-1.9 5.3-.3 1.7-2 7.1-2.4 9.5-.4 2.4-2.3 5.9-3.2 7.5s-3.4 6-4.2 7.2c-.8 1.2-5.3 7.8-7.1 10.3-2 2.2-5.9 6.6-7.2 7.9zm.6-8.8c2.1-2.4 10.1-13.4 12.3-16.9 2.2-3.5 3.6-8.7 4-9.9.5-1.2 2.4-4.5 0-7-1.4 1.4-2.9 1.8-4.9 3.8-1.5 1.5-3.2 4.1-4.4 5.5s-4.3 4.4-6.4 6.4c-2.1 2-11.4 10.2-13 11.9-1.2 1.2-12.2 12.4-16.7 16.8-3.9 3.9-7.1 7-9.7 9.6.2.3 2.4.7 3.2.8 3 .6 8.7-1.3 11.8-3.1.7-.4 5.2-2.5 7-3.5 1.8-1 7-5.1 8.7-6.4 1.7-1.2 4.8-4.7 8.1-8zm-35.8 27.7c-1.2-.1-6.6-.1-8.3-1.8-2.3 2.3-15.6 14.4-17.8 16.5 6.9-3.4 15.3-8.4 17-8.9 1.7-.4 9.3-4.8 9.1-5.8zm103.9-118.7c-.6-4-8.7-10.4-11.3-7.8 1.5 1.5 3.4 3.7 5.5 5.8 1.2 1.3 6.3 5.1 5.8 2zm-16.7 1.1c3.8 3.9 8.1 7.6 9.6 6.1 1.7-1.3-4.4-7.8-5.5-8.9-6.5-6.3-9.4-8.4-11.2-5.5-.5.8 3.9 5 7.1 8.3zm24.2-7.5c-2.1-2.1-5.7-5-6-4.7-.8.8.6 3.4 1.2 4.2 1.4 1.7 3.1 2.9 4.8.5zm-20.3 18.8c-2.5-4.2-7.7-9.3-11.4-13-2.3-2.3-4-3.5-5.8-5.2-1.8-1.8-5.1-3.8-6.1-3.6-1.2 1.2-1.7 1.5-.8 2.4.9.9 4.4 4.5 6.1 6.2 3.5 3.5 6.7 7.4 10.2 10.8 3 3 4.7 5.4 7.8 2.4zm-7.3 4.5c-8-8.1-17.6-18.8-26.5-27.7-1.4 1.4.2 6.4 2.3 8.5 2.1 2.1 4.8 6.8 7.6 9.5 1.4.9 6.6 6.6 7.6 7.6 1 .9 2.8 2.8 4.3 4.3 2.2 2.2 2.9 1.3 4.8-.5.7-.8.2-1.4-.1-1.7zm-5.7 7.6c-2.4-2.4-6.4-7.1-9.7-10.3-1.8-1.8-3.1-5.1-5.3-2.9-.4.8-.6 1.6 0 2.3 1 1 2.2 3 3.2 4 1 .9 4.9 5.4 5.5 5.9 2.8 2.7 3.5 3.8 6.3 1zm-7 4.8c-1.6-2-5.9-5.5-6.2-5.8-1.3 1.4 1.3 5.2 2.6 6.6 2.8 2.9 5.2 1.2 3.6-.8zm-73.9 73.2c-2.1-1.6-3.1-7.7.8-9.6 3.8-2 6.8-.3 7.4-.9.7-.6 1.4-2 2.5-5.2 1.2-3.2.5-8.2-5.4-11.4-2.2-2.2-2.1-1.5-2.9-1.7-.8-.2-4.1-.2-6.2.6-3.6 1.4-9.6 6.7-11.3 9.8-4.7 8.8-.6 18 2.1 21.1 1.4 1.7 4.5 3.2 5.5 4.3 2.6-1.9 7-5.3 7.5-7zM214 581c1.5-2.2 4.2-3.6 5.2-5.1-1.3-.8-6 .3-7.6 1.3-1.6 1-5.8 3.1-9.3 4.1-3.5 1-9.2 5.2-10.7 6.7-4.3 4.3-7.7 7.1-8.3 10.9-.6 3.8 3.3 7.1 4.9 8.7 1.6-1.6 1.7-3.8 4.1-5.2 2.3-1.5 4.5-3.2 4.8-3.6.7-.5 3.2-3 5.2-5.2s3.1-3 4-4c1.6-1.8 5.5-5.4 7.7-8.6zM521.8 308.9c-2.5 1.8-9.1 6.4-10.3 7.1-1.2.8-5.6 3.3-7.2 4.2-1.6.9-5.1 2.8-7.5 3.2-2.4.4-7.8 2.2-9.5 2.4-.6.1-2.5 1-5.3 1.9-1.3.4-3.1.9-4.5 2.1-2.3 2-4.8 3.7-7.4 6.4-1.2 1-5.5 6.7-9.6 10.8-1 1-6.8 5.9-8.5 7.7-3 3-6.5 7.2-8.6 9.5-2.2 2.3-11.2 10.9-11.1 11.1-1.5 1.5-8.4 7.7-11.1 9.9-2.7 2.2-5.5 5.7-7.3 7.3-1.8 1.7-2.8-1.7-2.4-3.4.4-2.1 1.9-11.2 2.1-13.8.2-2.6 1.6-7.8 2.3-10.4.7-2.6.2-5.8.6-7.6-.5-.5.5-5.2.6-7.5.1-2.3-.4-6.9-.6-8.7-.1-1.8-2.4-15.8-2.9-18-.5-2.2-1.2-4.5-1.2-4.7-1.2-3.4 1.3-3.1 2.7-2.3 3.3 2.2 8.6 4.1 11.3 4.6 2.7.6 8.4 2.5 9.9 2.9 3.2.8 6.6 2.2 9.3 2.3 2.7.1 6 .2 7.6.6 1.6 0 11.1.8 14.6.8 3.4-.1 8.7-4.7 11-7.2 2.3-2.4 4.9-5.4 5.8-6.4l13.6-13.6 6.8-6.8c1.7-1.7 9.7-10.8 11.1-12.2-3.1-1.1-6.9-1.1-9.4-3.5-1.4-1.4-4.2-2.2-6.1-5.3-1.8-3-2.5-8.3-2.1-9.9.4-3.1 3.2-7.9 4.4-9.8 1.2-1.9 5.9-5.8 7.9-7.1 1.9-1.2 8.3-3 10.5-3.5 2.2-.5 7.8.7 8.9 1 1.6 0 10.2 3.9 14.1 9.1 2-2 5.4-5.3 6.6-6.4 2.9-2.9 4-4.7 7.4-8.1 3.3-3.3 5.6-6.5 8.1-9 2.3-2.3 3.5-3 5.8-5.9 0 0 .5-4.1.8-4.5.7-1.4 2.9-9.4 3.8-10.8 1.5-2.4 2.7-7.4 3.9-10.2 1.3-2.8 4-7.5 6-9.9 2-2.4 4.5-6.7 6.6-9.4 2.2-2.7 8-6.5 11-7.5s6.3-1.8 9.4 0c2.6 1.5 5.6 3.5 6.9 3.5 1.8-1.8 3.1-3.3 6-5.4 2.9-2.1 3.2-4.1 4.4-5.5 1.1-1.4 3-2.4 3-2.5-1.2-1.2-3.3-3-5-6.2-1.6-3.2-2.1-4.6-1.8-5.2.3-.6 1.6-1.5 2.8-.8 1.2.7 8.3 6.1 9.2 6.8.8-.4 2.2-2.1 2.4-3.3-1.7-1.7-7.1-8-5.2-9.9 2.4-2.4 6.2 1.5 7.5 2.7 1.3 1.2 2 1.2 2.9.8.9-.3 2.2-.7 3.8-2.6 1.2-1.4 2.8-4.5 4.3-5.5s8.4-8.4 12.2-12.2c1.1-1.1 3.5-2.4 4.1-4.1.6-1.7 1.6-3.5 4.1-5.2 2.5-1.7 13.8-13.4 15.2-14.2 1.4-.8 2.5-1.7 2.8-2.7.3-1 3.2-4.3 4.3-5.4 1.3-1.3 3.5-3.8 5.1-5.1 1.6-1.3 4.8-6.5 7.5-8.7 2.7-2.2 6.5-4.6 8.7-7.5 2.3-2.9 6.4-6.3 6.4-6.5.1.1 5.6-6.7 6.8-8 4.6-4.6 9.1-8.1 11.2-11.2 2.1-3.1 4.5-2.5 6.4-5.2 1.9-2.7 6-7.6 8.1-9.3 2.1-1.7 2.6-2.3 2.9-2.9.3-.6 4.2-6.3 6.7-3.8 4 4-2.9 5.5-4.9 9-2.1 3.5-6.9 7.1-8.1 8.1-1.3 1.1-12.5 13.4-15.2 15.2-2.6 1.7-10.4 9.7-11.6 11.6-1.2 2-4.7 5.8-7 8.2-1.1 1.1-3 1.4-4.1 4.1-1.1 2.7-7 7-10.3 10.3-5.4 5.4-9.5 10.5-13.5 13.5s-7.2 8.3-9.2 10.3l-9.8 9.8c-1 1-3.5 6-7.8 7.8-2 2-5.7 5.6-7.5 8.7-1.9 3.1-9.8 6.6-5.8 10.5 1.3 1.3 4 6.8.6 6.4-3.4-.3-5.2-2.2-6.5-3-.7-.2-.6-1.3-2.3 1.2-.6.8-1.1 1.6-1.5 1.9 2.5 2.5 6 6.4 5.6 7.9-.4 1.5-5.1 1.1-6.5-.6-1.5-1.6-3.8-2.2-4.6-2.3-1 1-6.5 6.5-10.5 11.6s-16 16-23.8 23.8c-.8.8-2.7 2.8-3.5 3.5-2.4 2.4-3.1 3.8-5.2 5.2-2.1 1.4-4.4 3.8-5.4 4.8-1 1.1-7.5 7.9-8.6 9.1-1.1 1.2-1.3 1.9-2.9 5.3-1.6 3.4-15.4 27.6-16.9 30.8-3.3 7.1-17.6 27-19.2 29.7-1.6 2.7-6.4 8.5-11.7 14-1 1.5-5.4 5.4-7.9 7.2zm7.6-14.6c1.4-1.8 5.4-7 6.4-8.7 1-1.8 3.1-6.3 3.5-7 1.8-3.1 3.7-8.8 3.1-11.8-.2-.8-.5-3-.8-3.2-2.6 2.6-5.8 5.9-9.6 9.7-4.4 4.4-15.6 15.5-16.8 16.7-1.7 1.7-9.9 10.9-11.9 13-2 2.1-5 5.2-6.4 6.4-1.4 1.2-4 2.9-5.5 4.4-2 2-2.4 3.5-3.8 4.9 2.4 2.4 5.8.5 7 0 1.2-.5 6.4-1.9 9.9-4 3.5-2.2 14.5-10.1 16.9-12.3 3.1-3.2 6.6-6.3 8-8.1zm25.4-36.7c.4-1.7 5.5-10.1 8.9-17-2.2 2.2-14.2 15.4-16.5 17.8 1.7 1.7 1.6 7.1 1.8 8.3.9.2 5.3-7.4 5.8-9.1zM428.3 364.8c-2.1-2.1-4.3-4-5.8-5.5-2.6 2.6 3.8 10.6 7.8 11.3 3.1.5-.8-4.6-2-5.8zm-5.3-18c-2.8 1.8-.8 4.7 5.5 11.2 1.1 1.1 7.6 7.3 8.9 5.5 1.5-1.5-2.2-5.8-6.1-9.6-3.2-3.2-7.5-7.6-8.3-7.1zm.3 26.5c-.8-.6-3.4-2.1-4.2-1.2-.3.3 2.6 3.9 4.7 6 2.4-1.7 1.2-3.4-.5-4.8zm16.9-23.3c-3.5-3.5-7.4-6.7-10.8-10.2-1.7-1.7-5.3-5.2-6.2-6.1-.9-.9-1.2-.4-2.4.8-.3 1 1.8 4.3 3.6 6.1 1.7 1.7 2.9 3.5 5.2 5.8 3.8 3.8 8.8 8.9 13 11.4 3-3.1.6-4.8-2.4-7.8zm8.6.5c1.8-1.9 2.7-2.6.5-4.8-1.4-1.4-3.4-3.3-4.3-4.3-1-1-6.7-6.2-7.6-7.6-2.7-2.8-7.4-5.4-9.5-7.6-2.1-2.1-7.1-3.7-8.5-2.3 8.9 8.9 19.6 18.4 27.7 26.5.3.4 1 .9 1.7.1zm5-12c-.5-.6-5-4.5-5.9-5.5-.9-1-3-2.2-4-3.2-.7-.6-1.6-.4-2.3 0-2.2 2.2 1.1 3.5 2.9 5.3 3.2 3.2 7.9 7.3 10.3 9.7 2.7-2.8 1.7-3.6-1-6.3zm6.5-4.3c-1.4-1.4-5.2-3.9-6.6-2.6.3.3 3.8 4.6 5.8 6.2 2 1.5 3.7-.8.8-3.6zm79.4-77.6c-1-1-2.6-4.1-4.3-5.5-3.2-2.7-12.3-6.8-21.1-2.1-3.1 1.7-8.5 7.7-9.8 11.3-.8 2.1-.8 5.4-.6 6.2.2.8-.5.6 1.7 2.9 3.2 5.8 8.2 6.5 11.4 5.4 3.2-1.2 4.6-1.8 5.2-2.5.6-.7-1.1-3.6.9-7.4 2-3.8 8.1-2.8 9.6-.8 1.8-.7 5.1-5.1 7-7.5zm57.2-57.7c1.1-1 1.8-2 4-4 2.2-2.1 4.7-4.5 5.2-5.2.4-.4 2.1-2.5 3.6-4.8s3.7-2.5 5.2-4.1c-1.6-1.6-4.9-5.5-8.7-4.9-3.8.6-6.6 4-10.9 8.3-1.5 1.5-5.7 7.2-6.7 10.7-1 3.5-3.1 7.8-4.1 9.3-1 1.6-2.1 6.3-1.3 7.6 1.6-1.1 2.9-3.7 5.1-5.2 3.4-2.3 7-6.2 8.6-7.7zM396.5 386.5c-.7 1.3-3.7 3.7-5.8 4.6-2.1 1-4.6 2.5-6.8 3.8-2.2 1.4-8.7 2.8-11.2 2.6s-11-.6-18.1-4.1c-2.1-1.1-3.1-2.3-.5-5.3 4-4.3 7-7.8 8.7-9.5 1-1 2.6-2.3 3-3.1 1.2-1.2.3-2.2-.7-3-3.5-3.5-6.5-8.8-6.4-14.5 0-2.6 1.7-6.8 8.1-7.6 4-.5 11.3 3.3 12.8 4.1 1.5.8 4.1 1.8 4.7 2.4l4.3-4.3 7.1-7.1c3-3 3.7-.1 4.9 2 1.2 2.2 2.5 7.5 2.9 9.8.5 2.1.6 9.5.6 11.1 0 1.6-1 6-1.2 5.8-.8 1.7-.7 3-1.7 5.2-1 2.3-4.3 6.3-4.7 7.1zm-2.3-5.9c.5-.3 2.3 0 0-2.5s-4.3-4.2-5.3-5.2c-3.7-3.7-5.6-6.7-8.8-10-1.3-1.3-8.8-8.3-10.8-6.2-.6.2 2 3 3.5 4.7l11.8 11.8c2.5 2.6 6.9 10.1 9.6 7.4m-4.3 4.7c-.7-3-6.4-7.2-9.2-10l-14.4-14.4c-2.2 2.2 3.6 8.3 5.8 10.5 1 1.4 3.6 3.6 5.2 5.2l6 6c2.3 2.2 3.8 5.5 6.6 2.7zm8.4-11.1c.1-1.3.6-3.5-.6-4.1l-6.1-6.1c-1.5-1.5-3.9-1.7-3.6 0-.5 2 8.6 12 10.3 10.2m-15.7 14.6c-2.2-2.2-5-6.2-8-9.2-4.1-4.1-4.2.2-3 1.7 2.3 2.2 7.8 10.6 11 7.5m16.3-24.4c-.6-1.3.9-1.5-1.9-4.3-1.6-1.6-3.9-5-5.6-3.3.6.7 5.8 9.2 7.5 7.6m-24.1 26.1c-1.9-2-7.6-9.6-9.7-7.5-.5 1.2 6.4 10.8 9.7 7.5z"/></g><g><path class="st2" d="M1039.4 1245c2.5-1.8 9.1-6.4 10.3-7.1 1.2-.8 5.6-3.3 7.2-4.2 1.6-.9 5.1-2.8 7.5-3.2 2.4-.4 7.8-2.2 9.5-2.4.6-.1 2.5-1 5.3-1.9 1.3-.4 3.1-.9 4.5-2.1 2.3-2 4.8-3.7 7.4-6.4 1.2-1 5.5-6.7 9.6-10.8 1-1 6.8-5.9 8.5-7.7 3-3 6.5-7.2 8.6-9.5 2.2-2.3 11.2-10.9 11.1-11.1 1.5-1.5 8.4-7.7 11.1-9.9 2.7-2.2 5.5-5.7 7.3-7.3 1.8-1.7 2.8 1.7 2.4 3.4-.4 2.1-1.9 11.2-2.1 13.8-.2 2.6-1.6 7.8-2.3 10.4-.7 2.6-.2 5.8-.6 7.6.5.5-.5 5.2-.6 7.5-.1 2.3.4 6.9.6 8.7.1 1.8 2.4 15.8 2.9 18 .5 2.2 1.2 4.5 1.2 4.7 1.2 3.4-1.3 3.1-2.7 2.3-3.3-2.2-8.6-4.1-11.3-4.6-2.7-.6-8.4-2.5-9.9-2.9-3.2-.8-6.6-2.2-9.3-2.3-2.7-.1-6-.2-7.6-.6-1.6 0-11.1-.8-14.6-.8-3.4.1-8.7 4.7-11 7.2-2.3 2.4-4.9 5.4-5.8 6.4l-13.6 13.6-6.8 6.8c-1.7 1.7-9.7 10.8-11.1 12.2 3.1 1.1 6.9 1.1 9.4 3.5 1.4 1.4 4.2 2.2 6.1 5.3 1.8 3 2.5 8.3 2.1 9.9-.4 3.1-3.2 7.9-4.4 9.8-1.2 1.9-5.9 5.8-7.9 7.1-1.9 1.2-8.3 3-10.5 3.5-2.2.5-7.8-.7-8.9-1-1.6 0-10.2-3.9-14.1-9.1-2 2-5.4 5.3-6.6 6.4-2.9 2.9-4 4.7-7.4 8.1-3.3 3.3-5.6 6.5-8.1 9-2.3 2.3-3.5 3-5.8 5.9 0 0-.5 4.1-.8 4.5-.7 1.4-2.9 9.4-3.8 10.8-1.5 2.4-2.7 7.4-3.9 10.2-1.3 2.8-4 7.5-6 9.9-2 2.4-4.5 6.7-6.6 9.4-2.2 2.7-8 6.5-11 7.5s-6.2 1.8-9.4 0c-2.6-1.5-5.6-3.5-6.9-3.5-1.8 1.8-3.1 3.3-6 5.4-2.9 2.1-3.2 4.1-4.4 5.5-1.1 1.4-3 2.4-3 2.5 1.2 1.2 3.3 3 5 6.2 1.6 3.2 2.1 4.6 1.8 5.2-.3.6-1.6 1.5-2.8.8-1.2-.7-8.3-6.1-9.2-6.8-.8.4-2.2 2.1-2.4 3.3 1.7 1.7 7.1 8 5.2 9.9-2.4 2.4-6.2-1.5-7.5-2.7-1.3-1.2-2-1.2-2.9-.8-.9.3-2.2.7-3.8 2.6-1.2 1.4-2.8 4.5-4.3 5.5s-8.4 8.4-12.2 12.2c-1.1 1.1-3.5 2.4-4.1 4.1-.6 1.7-1.6 3.5-4.1 5.2-2.5 1.7-13.8 13.4-15.2 14.2-1.4.8-2.5 1.7-2.8 2.7-.3 1-3.2 4.3-4.3 5.4-1.3 1.3-3.5 3.8-5.1 5.1-1.6 1.3-4.8 6.5-7.5 8.7-2.7 2.2-6.5 4.6-8.7 7.5-2.3 2.9-6.4 6.3-6.4 6.5-.1-.1-5.6 6.7-6.8 8-4.6 4.6-9.1 8.1-11.2 11.2-2.1 3.1-4.5 2.5-6.4 5.2-1.9 2.7-6 7.6-8.1 9.3-2.1 1.7-2.6 2.3-2.9 2.9-.3.6-4.2 6.3-6.7 3.8-4-4 2.9-5.5 4.9-9 2.1-3.5 6.9-7.1 8.1-8.1 1.3-1.1 12.5-13.4 15.2-15.2 2.6-1.7 10.4-9.7 11.6-11.6 1.2-2 4.7-5.8 7-8.2 1.1-1.1 3-1.4 4.1-4.1 1.1-2.7 7-7 10.3-10.3 5.4-5.4 9.5-10.5 13.5-13.5s7.2-8.3 9.2-10.3l9.8-9.8c1-1 3.5-6 7.8-7.8 2-2 5.7-5.6 7.5-8.7 1.9-3.1 9.8-6.6 5.8-10.5-1.3-1.3-4-6.8-.6-6.4 3.4.3 5.2 2.2 6.5 3 .7.2.6 1.3 2.3-1.2.6-.8 1.1-1.6 1.5-1.9-2.5-2.5-6-6.4-5.6-7.9.4-1.5 5.1-1.1 6.5.6 1.5 1.6 3.8 2.2 4.6 2.3 1-1 6.5-6.5 10.5-11.6s16-16 23.8-23.8c.8-.8 2.7-2.8 3.5-3.5 2.4-2.4 3.1-3.8 5.2-5.2 2.1-1.4 4.4-3.8 5.4-4.8 1-1.1 7.5-7.9 8.6-9.1 1.1-1.2 1.3-1.9 2.9-5.3 1.6-3.4 15.4-27.6 16.9-30.8 3.3-7.1 17.6-27 19.2-29.7 1.6-2.7 6.4-8.5 11.7-14 1-1.5 5.4-5.4 7.9-7.2zm-7.6 14.5c-1.4 1.8-5.4 7-6.4 8.7-1 1.8-3.1 6.3-3.5 7-1.8 3.1-3.7 8.8-3.1 11.8.2.8.5 3 .8 3.2 2.6-2.6 5.8-5.9 9.6-9.7 4.4-4.4 15.6-15.5 16.8-16.7 1.7-1.7 9.9-10.9 11.9-13 2-2.1 5-5.2 6.4-6.4 1.4-1.2 4-2.9 5.5-4.4 2-2 2.4-3.5 3.8-4.9-2.4-2.4-5.8-.5-7 0-1.2.5-6.4 1.9-9.9 4-3.5 2.2-14.5 10.1-16.9 12.3-3.1 3.3-6.6 6.3-8 8.1zm-25.4 36.7c-.4 1.7-5.5 10.1-8.9 17 2.2-2.2 14.2-15.4 16.5-17.8-1.7-1.7-1.6-7.1-1.8-8.3-.9-.2-5.3 7.5-5.8 9.1zm126.5-107.2c2.1 2.1 4.3 4 5.8 5.5 2.6-2.6-3.8-10.6-7.8-11.3-3.1-.4.8 4.6 2 5.8zm5.3 18.1c2.8-1.8.8-4.7-5.5-11.2-1.1-1.1-7.6-7.3-8.9-5.5-1.5 1.5 2.2 5.8 6.1 9.6 3.3 3.1 7.5 7.6 8.3 7.1zm-.3-26.6c.8.6 3.4 2.1 4.2 1.2.3-.3-2.6-3.9-4.7-6-2.4 1.7-1.2 3.5.5 4.8zm-16.9 23.4c3.5 3.5 7.4 6.7 10.8 10.2 1.7 1.7 5.3 5.2 6.2 6.1.9.9 1.2.4 2.4-.8.3-1-1.8-4.3-3.6-6.1-1.7-1.7-2.9-3.5-5.2-5.8-3.8-3.8-8.8-8.9-13-11.4-3 3-.6 4.8 2.4 7.8zm-8.5-.6c-1.8 1.9-2.7 2.6-.5 4.8 1.4 1.4 3.4 3.3 4.3 4.3 1 1 6.7 6.2 7.6 7.6 2.7 2.8 7.4 5.4 9.5 7.6 2.1 2.1 7.1 3.7 8.5 2.3-8.9-8.9-19.6-18.4-27.7-26.5-.4-.3-1-.8-1.7-.1zm-5 12c.5.6 5 4.5 5.9 5.5.9 1 3 2.2 4 3.2.7.6 1.6.4 2.3 0 2.2-2.2-1.1-3.5-2.9-5.3-3.2-3.2-7.9-7.3-10.3-9.7-2.8 2.9-1.8 3.6 1 6.3zm-6.6 4.4c1.4 1.4 5.2 3.9 6.6 2.6-.3-.3-3.8-4.6-5.8-6.2-2-1.6-3.7.7-.8 3.6zm-79.4 77.6c1 1 2.6 4.1 4.3 5.5 3.2 2.7 12.3 6.8 21.1 2.1 3.1-1.7 8.5-7.7 9.8-11.3.8-2.1.8-5.4.6-6.2-.2-.8.5-.6-1.7-2.9-3.2-5.8-8.2-6.5-11.4-5.4-3.2 1.2-4.6 1.8-5.2 2.5-.6.7 1.1 3.6-.9 7.4-2 3.8-8.1 2.8-9.6.8-1.8.7-5.1 5-7 7.5zm-57.2 57.7c-1.1 1-1.8 2-4 4-2.2 2.1-4.7 4.5-5.2 5.2-.4.4-2.1 2.5-3.6 4.8s-3.7 2.5-5.2 4.1c1.6 1.6 4.9 5.5 8.7 4.9 3.8-.6 6.6-4 10.9-8.3 1.5-1.5 5.7-7.2 6.7-10.7 1-3.5 3.1-7.8 4.1-9.3 1-1.6 2.1-6.3 1.3-7.6-1.6 1.1-2.9 3.7-5.1 5.2-3.4 2.3-7 6.1-8.6 7.7zM1251.8 1031.4c5.5-5.3 11.3-10.1 14-11.7 2.7-1.6 22.5-15.9 29.7-19.2 3.2-1.5 27.4-15.2 30.8-16.9 3.4-1.6 4-1.8 5.3-2.9 1.2-1 8.1-7.5 9.1-8.6 1.1-1 3.4-3.3 4.8-5.4 1.4-2.1 2.8-2.8 5.2-5.2.7-.8 2.7-2.7 3.5-3.5 7.9-7.9 18.8-19.8 23.8-23.8 5.1-4 10.6-9.5 11.6-10.5-.1-.8-.7-3.1-2.3-4.6-1.6-1.5-2-6.2-.6-6.5 1.5-.4 5.4 3 7.9 5.6.3-.3 1.1-.9 1.9-1.5 2.5-1.7 1.4-1.6 1.2-2.3-.7-1.2-2.6-3.1-3-6.5s5.2-.7 6.4.6c4 4 7.4-4 10.5-5.8 3.1-1.9 6.7-5.5 8.7-7.5 1.8-4.3 6.9-6.9 7.8-7.8l9.8-9.8c1.9-1.9 7.3-5.1 10.3-9.2 3-4 8.1-8.1 13.5-13.5 3.3-3.3 7.6-9.2 10.3-10.3 2.7-1.1 2.9-2.9 4.1-4.1 2.3-2.3 6.2-5.8 8.2-7 2-1.2 9.9-9 11.6-11.6 1.7-2.6 14.1-13.9 15.2-15.2 1.1-1.3 4.6-6.1 8.1-8.1s5-8.9 9-4.9c2.5 2.5-3.2 6.4-3.8 6.7-.6.3-1.2.8-2.9 2.9-1.7 2.1-6.6 6.2-9.3 8.1-2.7 1.9-2.1 4.4-5.2 6.4-3.1 2.1-6.6 6.6-11.2 11.2-1.2 1.2-8.1 6.7-8 6.8-.2 0-3.5 4.1-6.5 6.4-2.9 2.3-5.3 6-7.5 8.7-2.2 2.7-7.4 5.9-8.7 7.5-1.3 1.6-3.8 3.8-5.1 5.1-1 1-4.4 4-5.4 4.3-1 .3-2 1.4-2.7 2.8-.8 1.4-12.4 12.7-14.2 15.2-1.7 2.5-3.5 3.5-5.2 4.1-1.7.6-2.9 2.9-4.1 4.1-3.8 3.8-11.2 10.7-12.2 12.2s-4.1 3.1-5.5 4.3c-1.9 1.6-2.3 2.9-2.6 3.8-.3.9-.3 1.6.8 2.9 1.2 1.3 5 5.2 2.7 7.5-1.9 1.9-8.2-3.5-9.9-5.2-1.3.2-3 1.6-3.3 2.4.7.9 6.1 8 6.8 9.2.7 1.2-.1 2.5-.8 2.8-.6.3-2-.2-5.2-1.8s-5-3.8-6.2-5c-.1 0-1.1 1.9-2.5 3s-3.4 1.5-5.5 4.4c-2.1 2.9-3.6 4.2-5.4 6 0 1.4 2 4.3 3.5 6.9 1.8 3.1 1 6.3 0 9.4-1 3-4.9 8.9-7.5 11-2.7 2.2-6.9 4.6-9.4 6.6-2.4 2-7.1 4.7-9.9 6-2.8 1.3-7.8 2.4-10.2 3.9-1.4.9-9.4 3.1-10.8 3.8-.4.4-4.5.8-4.5.8-3 2.4-3.6 3.5-5.9 5.8-2.5 2.5-5.7 4.9-9 8.1-3.4 3.4-5.3 4.6-8.1 7.4-1.2 1.3-4.5 4.7-6.4 6.6 5.2 3.8 9.1 12.5 9.1 14.1.3 1.1 1.5 6.7 1 8.9s-2.3 8.5-3.5 10.5-5.2 6.6-7.1 7.9c-1.9 1.2-6.6 4-9.8 4.4-1.6.4-6.9-.3-9.9-2.1s-3.9-4.7-5.3-6.1c-2.5-2.5-2.5-6.3-3.5-9.4-1.4 1.4-10.5 9.4-12.2 11.1l-6.8 6.8-13.6 13.6c-1 .9-3.9 3.5-6.4 5.8-2.4 2.3-7.1 7.6-7.2 11-.1 3.4.7 12.9.8 14.6.4 1.6.4 4.9.6 7.6.1 2.7 1.5 6 2.3 9.3.5 1.6 2.4 7.2 2.9 9.9.6 2.7 2.4 8 4.6 11.3.8 1.4 1.1 3.8-2.3 2.7-.2.1-2.5-.7-4.7-1.2s-16.2-2.8-18-2.9c-1.8-.1-6.4-.6-8.7-.6-2.3.1-7 1.1-7.5.6-1.8.4-5-.1-7.6.6-2.6.7-7.8 2.1-10.4 2.3-2.6.2-11.8 1.8-13.8 2.1-1.7.4-5.1-.6-3.4-2.4s5.2-4.6 7.3-7.3c2.2-2.7 8.4-9.6 9.9-11.1.2.2 8.8-8.9 11.1-11.1 2.3-2.2 6.5-5.7 9.5-8.6 1.8-1.8 6.7-7.5 7.7-8.5 4-4 9.8-8.3 10.8-9.6 2.7-2.7 4.4-5.1 6.4-7.4 1.2-1.5 1.7-3.2 2.1-4.5.8-2.8 1.8-4.7 1.9-5.3.3-1.7 2-7.1 2.4-9.5.4-2.4 2.3-5.9 3.2-7.5s3.4-6 4.2-7.2c.8-1.2 5.3-7.8 7.1-10.3s5.9-6.7 7.2-7.9zm-.6 8.7c-2.1 2.4-10.1 13.4-12.3 16.9-2.2 3.5-3.6 8.7-4 9.9-.5 1.2-2.4 4.5 0 7 1.4-1.4 2.9-1.8 4.9-3.8 1.5-1.5 3.2-4.1 4.4-5.5 1.2-1.4 4.3-4.4 6.4-6.4 2.1-2 11.4-10.2 13-11.9 1.2-1.2 12.2-12.4 16.7-16.8 3.9-3.9 7.1-7 9.7-9.6-.2-.3-2.4-.7-3.2-.8-3-.6-8.7 1.3-11.8 3.1-.7.4-5.2 2.5-7 3.5-1.8 1-7 5.1-8.7 6.4-1.7 1.3-4.8 4.7-8.1 8zm35.8-27.6c1.2.1 6.6.1 8.3 1.8 2.3-2.3 15.6-14.4 17.8-16.5-6.9 3.4-15.3 8.4-17 8.9-1.7.3-9.3 4.7-9.1 5.8zm-103.9 118.6c.6 4 8.7 10.4 11.3 7.8-1.5-1.5-3.4-3.7-5.5-5.8-1.2-1.2-6.3-5.1-5.8-2zm16.7-1.1c-3.8-3.9-8.1-7.6-9.6-6.1-1.7 1.3 4.4 7.8 5.5 8.9 6.5 6.3 9.4 8.4 11.2 5.5.5-.8-3.9-5-7.1-8.3zm-24.2 7.5c2.1 2.1 5.7 5 6 4.7.8-.8-.6-3.4-1.2-4.2-1.4-1.7-3.1-2.9-4.8-.5zm20.3-18.7c2.5 4.2 7.7 9.3 11.4 13 2.3 2.3 4 3.5 5.8 5.2 1.8 1.8 5.1 3.8 6.1 3.6 1.2-1.2 1.7-1.5.8-2.4-.9-.9-4.4-4.5-6.1-6.2-3.5-3.5-6.7-7.4-10.2-10.8-3-3.1-4.7-5.5-7.8-2.4zm7.3-4.5c8 8.1 17.6 18.8 26.5 27.7 1.4-1.4-.2-6.4-2.3-8.5-2.1-2.1-4.8-6.8-7.6-9.5-1.4-.9-6.6-6.6-7.6-7.6-1-.9-2.8-2.8-4.3-4.3-2.2-2.2-2.9-1.3-4.8.5-.7.7-.2 1.4.1 1.7zm5.8-7.7c2.4 2.4 6.4 7.1 9.7 10.3 1.8 1.8 3.1 5.1 5.3 2.9.4-.8.6-1.6 0-2.3-1-1-2.2-3-3.2-4-1-.9-4.9-5.4-5.5-5.9-2.8-2.7-3.6-3.7-6.3-1zm6.9-4.8c1.6 2 5.9 5.5 6.2 5.8 1.3-1.4-1.3-5.2-2.6-6.6-2.8-2.8-5.2-1.2-3.6.8zm73.9-73.1c2.1 1.6 3.1 7.7-.8 9.6-3.8 2-6.8.3-7.4.9-.7.6-1.4 2-2.5 5.2-1.2 3.2-.5 8.2 5.4 11.4 2.2 2.2 2.1 1.5 2.9 1.7.8.2 4.1.2 6.2-.6 3.6-1.4 9.6-6.7 11.3-9.8 4.7-8.8.6-18-2.1-21.1-1.4-1.7-4.5-3.2-5.5-4.3-2.6 1.8-7 5.2-7.5 7zm57.4-55.8c-1.5 2.2-4.2 3.6-5.2 5.1 1.3.8 6-.3 7.6-1.3 1.6-1 5.8-3.1 9.3-4.1 3.5-1 9.2-5.2 10.7-6.7 4.3-4.3 7.7-7.1 8.3-10.9.6-3.8-3.3-7.1-4.9-8.7-1.6 1.6-1.7 3.8-4.1 5.2-2.3 1.5-4.5 3.2-4.8 3.6-.7.5-3.2 3-5.2 5.2-2.1 2.2-3.1 3-4 4-1.6 1.7-5.5 5.3-7.7 8.6zM1174.2 1160.1c2.2-1 3.5-.9 5.2-1.7-.2-.1 4.2-1.2 5.8-1.2 1.6 0 9 .1 11.1.6 2.3.4 7.7 1.7 9.8 2.9 2.2 1.2 5.1 1.9 2 4.9l-7.1 7.1-4.3 4.3c.6.6 1.6 3.2 2.4 4.7.8 1.5 4.6 8.8 4.1 12.8-.9 6.4-5.1 8-7.6 8.1-5.7.1-11.1-2.9-14.5-6.4-.8-1-1.8-1.8-3-.7-.8.4-2.2 2-3.1 3-1.7 1.7-5.2 4.7-9.5 8.7-3.1 2.6-4.3 1.6-5.3-.5-3.5-7.1-3.9-15.6-4.1-18.1-.2-2.5 1.2-9 2.6-11.2 1.4-2.2 2.8-4.7 3.8-6.8 1-2.1 3.3-5.1 4.6-5.8.9-.4 4.9-3.6 7.1-4.7zm-1.1 7.1c-2.7 2.7 4.8 7.1 7.4 9.7l11.8 11.8c1.6 1.5 4.5 4.1 4.7 3.5 2-2-4.9-9.5-6.2-10.8-3.3-3.3-6.2-5.1-10-8.8-1-1-2.7-2.9-5.2-5.3s-2.2-.7-2.5-.1m-1.9 10.9l6 6c1.5 1.5 3.7 4.2 5.2 5.2 2.2 2.2 8.3 8 10.5 5.8l-14.4-14.4c-2.8-2.8-7-8.5-10-9.2-2.9 2.7.4 4.2 2.7 6.6zm8.3-15c-1.7 1.7 8.3 10.8 10.1 10.3 1.7.3 1.5-2.1 0-3.6l-6.1-6.1c-.6-1.2-2.7-.7-4-.6m-14.6 15.7c-3.1 3.1 5.2 8.7 7.5 11 1.4 1.2 5.7 1 1.7-3-3-3-7-5.8-9.2-8m24.4-16.3c-1.7 1.7 6.9 6.9 7.6 7.6 1.7-1.7-1.7-4-3.3-5.6-2.8-2.9-3-1.4-4.3-2m-18.6 33.7c2.1-2.1-5.5-7.8-7.5-9.7-3.3 3.4 6.3 10.3 7.5 9.7z"/></g><g><path class="st2" d="M316.4 1043c1.8 2.5 6.4 9.1 7.1 10.3.8 1.2 3.3 5.6 4.2 7.2s2.8 5.1 3.2 7.5c.4 2.4 2.2 7.8 2.4 9.5.1.6 1 2.5 1.9 5.3.4 1.3.9 3.1 2.1 4.5 2 2.3 3.7 4.8 6.4 7.4 1 1.2 6.7 5.5 10.8 9.6 1 1 5.9 6.8 7.7 8.5 3 3 7.2 6.5 9.5 8.6 2.3 2.2 10.9 11.2 11.1 11.1 1.5 1.5 7.7 8.4 9.9 11.1 2.2 2.7 5.7 5.5 7.3 7.3s-1.7 2.8-3.4 2.4c-2.1-.4-11.2-1.9-13.8-2.1-2.6-.2-7.8-1.6-10.4-2.3-2.6-.7-5.8-.2-7.6-.6-.5.5-5.2-.5-7.5-.6-2.3-.1-6.9.4-8.7.6-1.8.1-15.8 2.4-18 2.9-2.2.5-4.5 1.2-4.7 1.2-3.4 1.2-3.1-1.3-2.3-2.7 2.2-3.3 4.1-8.6 4.6-11.3.6-2.7 2.5-8.4 2.9-9.9.8-3.2 2.2-6.6 2.3-9.3.1-2.7.2-6 .6-7.6 0-1.6.8-11.1.8-14.6-.1-3.4-4.7-8.7-7.2-11-2.4-2.3-5.4-4.9-6.4-5.8l-13.6-13.6-6.8-6.8c-1.7-1.7-10.8-9.7-12.2-11.1-1.1 3.1-1.1 6.9-3.5 9.4-1.4 1.4-2.2 4.2-5.3 6.1-3 1.8-8.3 2.5-9.9 2.1-3.1-.4-7.9-3.2-9.8-4.4-1.9-1.2-5.8-5.9-7.1-7.9-1.2-1.9-3-8.3-3.5-10.5-.5-2.2.7-7.8 1-8.9 0-1.6 3.9-10.2 9.1-14.1-2-2-5.3-5.4-6.4-6.6-2.9-2.9-4.7-4-8.1-7.4-3.3-3.3-6.5-5.6-9-8.1-2.3-2.3-3-3.5-5.9-5.8 0 0-4.1-.5-4.5-.8-1.4-.7-9.4-2.9-10.8-3.8-2.4-1.5-7.4-2.7-10.2-3.9-2.8-1.3-7.5-4-9.9-6-2.4-2-6.7-4.5-9.4-6.6-2.7-2.2-6.5-8-7.5-11s-1.8-6.2 0-9.4c1.5-2.6 3.5-5.6 3.5-6.9-1.8-1.8-3.3-3.1-5.4-6-2.1-2.9-4.1-3.2-5.5-4.4-1.4-1.1-2.4-3-2.5-3-1.2 1.2-3 3.3-6.2 5-3.2 1.6-4.6 2.1-5.2 1.8-.6-.3-1.5-1.6-.8-2.8.7-1.2 6.1-8.3 6.8-9.2-.4-.8-2.1-2.2-3.3-2.4-1.7 1.7-8 7.1-9.9 5.2-2.4-2.4 1.5-6.2 2.7-7.5 1.2-1.3 1.2-2 .8-2.9-.3-.9-.7-2.2-2.6-3.8-1.4-1.2-4.5-2.8-5.5-4.3s-8.4-8.4-12.2-12.2c-1.1-1.1-2.4-3.5-4.1-4.1-1.7-.6-3.5-1.6-5.2-4.1-1.7-2.5-13.4-13.8-14.2-15.2-.8-1.4-1.7-2.5-2.7-2.8-1-.3-4.3-3.2-5.4-4.3-1.3-1.3-3.8-3.5-5.1-5.1-1.3-1.6-6.5-4.8-8.7-7.5-2.2-2.7-4.6-6.5-7.5-8.7-2.9-2.3-6.3-6.4-6.5-6.4.1-.1-6.7-5.6-8-6.8-4.6-4.6-8.1-9.1-11.2-11.2-3.1-2.1-2.5-4.5-5.2-6.4-2.7-1.9-7.6-6-9.3-8.1-1.7-2.1-2.3-2.6-2.9-2.9-.6-.3-6.3-4.2-3.8-6.7 4-4 5.5 2.9 9 4.9 3.5 2.1 7.1 6.9 8.1 8.1 1.1 1.3 13.4 12.5 15.2 15.2 1.7 2.6 9.7 10.4 11.6 11.6 2 1.2 5.8 4.7 8.2 7 1.1 1.1 1.4 3 4.1 4.1 2.7 1.1 7 7 10.3 10.3 5.4 5.4 10.5 9.5 13.5 13.5s8.3 7.2 10.3 9.2l9.8 9.8c1 1 6 3.5 7.8 7.8 2 2 5.6 5.7 8.7 7.5 3.1 1.9 6.6 9.8 10.5 5.8 1.3-1.3 6.8-4 6.4-.6-.3 3.4-2.2 5.2-3 6.5-.2.7-1.3.6 1.2 2.3.8.6 1.6 1.1 1.9 1.5 2.5-2.5 6.4-6 7.9-5.6 1.5.4 1.1 5.1-.6 6.5-1.6 1.5-2.2 3.8-2.3 4.6 1 1 6.5 6.5 11.6 10.5s16 16 23.8 23.8c.8.8 2.8 2.7 3.5 3.5 2.4 2.4 3.8 3.1 5.2 5.2 1.4 2.1 3.8 4.4 4.8 5.4 1.1 1 7.9 7.5 9.1 8.6 1.2 1.1 1.9 1.3 5.3 2.9 3.4 1.6 27.6 15.4 30.8 16.9 7.1 3.3 27 17.6 29.7 19.2 2.7 1.6 8.5 6.4 14 11.7 1.5 1 5.4 5.5 7.2 7.9zm-14.6-7.5c-1.8-1.4-7-5.4-8.7-6.4-1.8-1-6.3-3.1-7-3.5-3.1-1.8-8.8-3.7-11.8-3.1-.8.2-3 .5-3.2.8 2.6 2.6 5.9 5.8 9.7 9.6 4.4 4.4 15.5 15.6 16.7 16.8 1.7 1.7 10.9 9.9 13 11.9 2.1 2 5.2 5 6.4 6.4s2.9 4 4.4 5.5c2 2 3.5 2.4 4.9 3.8 2.4-2.4.5-5.8 0-7-.5-1.2-1.9-6.4-4-9.9s-10.1-14.5-12.3-16.9c-3.2-3.1-6.3-6.6-8.1-8zm-36.7-25.4c-1.7-.4-10.1-5.5-17-8.9 2.2 2.2 15.4 14.2 17.8 16.5 1.7-1.7 7.1-1.6 8.3-1.8.2-1-7.4-5.4-9.1-5.8zm107.2 126.5c-2.1 2.1-4 4.3-5.5 5.8 2.6 2.6 10.6-3.8 11.3-7.8.5-3.1-4.6.8-5.8 2zm-18 5.2c1.8 2.8 4.7.8 11.2-5.5 1.1-1.1 7.3-7.6 5.5-8.9-1.5-1.5-5.8 2.2-9.6 6.1-3.2 3.3-7.6 7.5-7.1 8.3zm26.5-.3c-.6.8-2.1 3.4-1.2 4.2.3.3 3.9-2.6 6-4.7-1.7-2.4-3.4-1.1-4.8.5zm-23.3-16.8c-3.5 3.5-6.7 7.4-10.2 10.8-1.7 1.7-5.2 5.3-6.1 6.2-.9.9-.4 1.2.8 2.4 1 .3 4.3-1.8 6.1-3.6 1.7-1.7 3.5-2.9 5.8-5.2 3.8-3.8 8.9-8.8 11.4-13-3.1-3.1-4.8-.6-7.8 2.4zm.5-8.6c-1.9-1.8-2.6-2.7-4.8-.5-1.4 1.4-3.3 3.4-4.3 4.3-1 1-6.2 6.7-7.6 7.6-2.8 2.7-5.4 7.4-7.6 9.5-2.1 2.1-3.7 7.1-2.3 8.5 8.9-8.9 18.4-19.6 26.5-27.7.4-.3.9-1 .1-1.7zm-12-5c-.6.5-4.5 5-5.5 5.9-1 .9-2.2 3-3.2 4-.6.7-.4 1.6 0 2.3 2.2 2.2 3.5-1.1 5.3-2.9 3.2-3.2 7.3-7.9 9.7-10.3-2.8-2.7-3.5-1.7-6.3 1zm-4.3-6.6c-1.4 1.4-3.9 5.2-2.6 6.6.3-.3 4.6-3.8 6.2-5.8 1.6-2-.8-3.6-3.6-.8zm-77.6-79.3c-1 1-4.1 2.6-5.5 4.3-2.7 3.2-6.8 12.3-2.1 21.1 1.7 3.1 7.7 8.5 11.3 9.8 2.1.8 5.4.8 6.2.6.8-.2.6.5 2.9-1.7 5.8-3.2 6.5-8.2 5.4-11.4-1.2-3.2-1.8-4.6-2.5-5.2-.7-.6-3.6 1.1-7.4-.9-3.8-2-2.8-8.1-.8-9.6-.7-1.8-5.1-5.2-7.5-7zM206.4 968c-1-1.1-2-1.8-4-4s-4.5-4.7-5.2-5.2c-.4-.4-2.5-2.1-4.8-3.6s-2.5-3.7-4.1-5.2c-1.6 1.6-5.5 4.9-4.9 8.7.6 3.8 4 6.6 8.3 10.9 1.5 1.5 7.2 5.7 10.7 6.7 3.5 1 7.8 3.1 9.3 4.1 1.6 1 6.3 2.1 7.6 1.3-1.1-1.6-3.7-2.9-5.2-5.1-2.3-3.4-6.2-7.1-7.7-8.6zM530 1255.4c5.3 5.5 10.1 11.3 11.7 14 1.6 2.7 15.9 22.5 19.2 29.7 1.5 3.2 15.2 27.4 16.9 30.8 1.6 3.4 1.8 4 2.9 5.3 1 1.2 7.5 8.1 8.6 9.1 1 1.1 3.3 3.4 5.4 4.8 2.1 1.4 2.8 2.8 5.2 5.2.8.7 2.7 2.7 3.5 3.5 7.9 7.9 19.8 18.8 23.8 23.8 4 5.1 9.5 10.6 10.5 11.6.8-.1 3.1-.7 4.6-2.3 1.5-1.6 6.2-2 6.5-.6.4 1.5-3 5.4-5.6 7.9.3.3.9 1.1 1.5 1.9 1.7 2.5 1.6 1.4 2.3 1.2 1.2-.7 3.1-2.6 6.5-3 3.4-.3.7 5.2-.6 6.4-4 4 4 7.4 5.8 10.5 1.9 3.1 5.5 6.7 7.5 8.7 4.3 1.8 6.9 6.9 7.8 7.8l9.8 9.8c1.9 1.9 5.1 7.3 9.2 10.3 4 3 8.1 8.1 13.5 13.5 3.3 3.3 9.2 7.6 10.3 10.3 1.1 2.7 2.9 2.9 4.1 4.1 2.3 2.3 5.8 6.2 7 8.2 1.2 2 9 9.9 11.6 11.6 2.6 1.7 13.9 14.1 15.2 15.2 1.3 1.1 6.1 4.6 8.1 8.1 2.1 3.5 8.9 5 4.9 9-2.5 2.5-6.4-3.2-6.7-3.8-.3-.6-.8-1.2-2.9-2.9-2.1-1.7-6.2-6.6-8.1-9.3-1.9-2.7-4.4-2.1-6.4-5.2-2.1-3.1-6.6-6.6-11.2-11.2-1.2-1.2-6.7-8.1-6.8-8 0-.2-4.1-3.5-6.4-6.5-2.3-2.9-6-5.3-8.7-7.5-2.7-2.2-5.9-7.4-7.5-8.7-1.6-1.3-3.8-3.8-5.1-5.1-1-1-4-4.4-4.3-5.4-.3-1-1.4-2-2.8-2.7-1.4-.8-12.7-12.4-15.2-14.2-2.5-1.7-3.5-3.5-4.1-5.2-.6-1.7-2.9-2.9-4.1-4.1-3.8-3.8-10.7-11.2-12.2-12.2s-3.1-4.1-4.3-5.5c-1.6-1.9-2.9-2.3-3.8-2.6-.9-.3-1.6-.3-2.9.8-1.3 1.2-5.2 5-7.5 2.7-1.9-1.9 3.5-8.2 5.2-9.9-.2-1.3-1.6-3-2.4-3.3-.9.7-8 6.1-9.2 6.8-1.2.7-2.5-.1-2.8-.8-.3-.6.2-2 1.8-5.2s3.8-5 5-6.2c0-.1-1.9-1.1-3-2.5s-1.5-3.4-4.4-5.5c-2.9-2.1-4.2-3.6-6-5.4-1.4 0-4.3 2-6.9 3.5-3.1 1.8-6.3 1-9.4 0s-8.9-4.9-11-7.5c-2.2-2.7-4.6-6.9-6.6-9.4-2-2.4-4.7-7.1-6-9.9-1.3-2.8-2.4-7.8-3.9-10.2-.9-1.4-3.1-9.4-3.8-10.8-.4-.4-.8-4.5-.8-4.5-2.4-3-3.5-3.6-5.8-5.9-2.5-2.5-4.9-5.7-8.1-9-3.4-3.4-4.6-5.3-7.4-8.1-1.3-1.2-4.7-4.5-6.6-6.4-3.8 5.2-12.5 9.1-14.1 9.1-1.1.3-6.7 1.5-8.9 1s-8.5-2.3-10.5-3.5c-1.9-1.2-6.6-5.2-7.9-7.1-1.2-1.9-4-6.6-4.4-9.8-.4-1.6.3-6.9 2.1-9.9s4.7-3.9 6.1-5.3c2.5-2.5 6.3-2.5 9.4-3.5-1.4-1.4-9.4-10.5-11.1-12.2l-6.8-6.8-13.6-13.6c-.9-1-3.5-3.9-5.8-6.4-2.3-2.4-7.6-7.1-11-7.2-3.4-.1-12.9.7-14.6.8-1.6.4-4.9.4-7.6.6-2.7.1-6 1.5-9.3 2.3-1.6.5-7.2 2.4-9.9 2.9-2.7.6-8 2.4-11.3 4.6-1.4.8-3.8 1.1-2.7-2.3-.1-.2.7-2.5 1.2-4.7s2.8-16.2 2.9-18c.1-1.8.6-6.4.6-8.7-.1-2.3-1.1-7-.6-7.5-.4-1.8.1-5-.6-7.6-.7-2.6-2.1-7.8-2.3-10.4-.2-2.6-1.8-11.8-2.1-13.8-.4-1.7.6-5.1 2.4-3.4 1.8 1.7 4.6 5.2 7.3 7.3 2.7 2.2 9.6 8.4 11.1 9.9-.2.2 8.9 8.8 11.1 11.1 2.2 2.3 5.7 6.5 8.6 9.5 1.8 1.8 7.5 6.7 8.5 7.7 4 4 8.3 9.8 9.6 10.8 2.7 2.7 5.1 4.4 7.4 6.4 1.5 1.2 3.2 1.7 4.5 2.1 2.8.8 4.7 1.8 5.3 1.9 1.7.3 7.1 2 9.5 2.4 2.4.4 5.9 2.3 7.5 3.2 1.6.9 6 3.4 7.2 4.2 1.2.8 7.8 5.3 10.3 7.1 2.2 2.1 6.6 6 7.9 7.2zm-8.8-.5c-2.4-2.1-13.4-10.1-16.9-12.3-3.5-2.2-8.7-3.6-9.9-4-1.2-.5-4.5-2.4-7 0 1.4 1.4 1.8 2.9 3.8 4.9 1.5 1.5 4.1 3.2 5.5 4.4 1.4 1.2 4.4 4.3 6.4 6.4 2 2.1 10.2 11.4 11.9 13 1.2 1.2 12.4 12.2 16.8 16.7 3.9 3.9 7 7.1 9.6 9.7.3-.2.7-2.4.8-3.2.6-3-1.3-8.7-3.1-11.8-.4-.7-2.5-5.2-3.5-7-1-1.8-5.1-7-6.4-8.7-1.2-1.7-4.7-4.8-8-8.1zm27.7 35.8c-.1 1.2-.1 6.6-1.8 8.3 2.3 2.3 14.4 15.6 16.5 17.8-3.4-6.9-8.4-15.3-8.9-17s-4.8-9.3-5.8-9.1zm-118.7-103.9c-4 .6-10.4 8.7-7.8 11.3 1.5-1.5 3.7-3.4 5.8-5.5 1.3-1.3 5.2-6.3 2-5.8zm1.1 16.7c3.9-3.8 7.6-8.1 6.1-9.6-1.3-1.7-7.8 4.4-8.9 5.5-6.3 6.5-8.4 9.4-5.5 11.2.8.5 5.1-4 8.3-7.1zm-7.5-24.2c-2.1 2.1-5 5.7-4.7 6 .8.8 3.4-.6 4.2-1.2 1.7-1.4 2.9-3.2.5-4.8zm18.8 20.3c-4.2 2.5-9.3 7.7-13 11.4-2.3 2.3-3.5 4-5.2 5.8-1.8 1.8-3.8 5.1-3.6 6.1 1.2 1.2 1.5 1.7 2.4.8.9-.9 4.5-4.4 6.2-6.1 3.5-3.5 7.4-6.7 10.8-10.2 3-3 5.4-4.8 2.4-7.8zm4.5 7.3c-8.1 8-18.8 17.6-27.7 26.5 1.4 1.4 6.4-.2 8.5-2.3 2.1-2.1 6.8-4.8 9.5-7.6.9-1.4 6.6-6.6 7.6-7.6.9-1 2.8-2.8 4.3-4.3 2.2-2.2 1.3-2.9-.5-4.8-.7-.7-1.4-.2-1.7.1zm7.6 5.7c-2.4 2.4-7.1 6.4-10.3 9.7-1.8 1.8-5.1 3.1-2.9 5.3.8.4 1.6.6 2.3 0 1-1 3-2.2 4-3.2.9-1 5.4-4.9 5.9-5.5 2.8-2.8 3.8-3.5 1-6.3zm4.8 7c-2 1.6-5.5 5.9-5.8 6.2 1.4 1.3 5.2-1.3 6.6-2.6 2.9-2.9 1.2-5.2-.8-3.6zm73.2 73.8c-1.6 2.1-7.7 3.1-9.6-.8-2-3.8-.3-6.8-.9-7.4-.6-.7-2-1.4-5.2-2.5-3.2-1.2-8.2-.5-11.4 5.4-2.2 2.2-1.5 2.1-1.7 2.9-.2.8-.2 4.1.6 6.2 1.4 3.6 6.7 9.6 9.8 11.3 8.8 4.7 18 .6 21.1-2.1 1.7-1.4 3.2-4.5 4.3-5.5-1.9-2.6-5.2-6.9-7-7.5zm55.8 57.5c-2.2-1.5-3.6-4.2-5.1-5.2-.8 1.3.3 6 1.3 7.6 1 1.6 3.1 5.8 4.1 9.3 1 3.5 5.2 9.2 6.7 10.7 4.3 4.3 7.1 7.7 10.9 8.3 3.8.6 7.1-3.3 8.7-4.9-1.6-1.6-3.8-1.7-5.2-4.1-1.5-2.3-3.2-4.5-3.6-4.8-.5-.7-3-3.2-5.2-5.2s-3-3.1-4-4c-1.8-1.7-5.4-5.5-8.6-7.7zM401.2 1177.9c1 2.2.9 3.5 1.7 5.2.1-.2 1.2 4.2 1.2 5.8 0 1.6-.1 9-.6 11.1-.4 2.3-1.7 7.7-2.9 9.8-1.2 2.2-1.9 5.1-4.9 2l-7.1-7.1-4.3-4.3c-.6.6-3.2 1.6-4.7 2.4-1.5.8-8.8 4.6-12.8 4.1-6.4-.9-8-5.1-8.1-7.6-.1-5.7 2.9-11.1 6.4-14.5 1-.8 1.8-1.8.7-3-.4-.8-2-2.2-3-3.1-1.7-1.7-4.7-5.2-8.7-9.5-2.6-3.1-1.6-4.3.5-5.3 7.1-3.5 15.6-3.9 18.1-4.1 2.5-.2 9 1.2 11.2 2.6 2.2 1.4 4.7 2.8 6.8 3.8 2.1 1 5.1 3.3 5.8 4.6.4.9 3.7 4.9 4.7 7.1zm-7-1.2c-2.7-2.7-7.1 4.8-9.7 7.4l-11.8 11.8c-1.5 1.6-4.1 4.5-3.5 4.7 2 2 9.5-4.9 10.8-6.2 3.3-3.3 5.1-6.2 8.8-10 1-1 2.9-2.7 5.3-5.2 2.4-2.4.6-2.1.1-2.5m-10.9-1.8l-6 6c-1.5 1.5-4.2 3.7-5.2 5.2-2.2 2.2-8 8.3-5.8 10.5l14.4-14.4c2.8-2.8 8.5-7 9.2-10-2.8-2.9-4.3.3-6.6 2.7zm15 8.2c-1.7-1.7-10.8 8.3-10.3 10.1-.3 1.7 2.1 1.5 3.6 0l6.1-6.1c1.2-.5.7-2.6.6-4m-15.7-14.5c-3.1-3.1-8.7 5.2-11 7.5-1.2 1.4-1 5.7 3 1.7 3-3 5.8-7 8-9.2m16.3 24.4c-1.7-1.7-6.9 6.9-7.6 7.6 1.7 1.7 4-1.7 5.6-3.3 2.8-2.8 1.4-3 2-4.3m-33.8-18.6c2.1 2.1 7.8-5.5 9.7-7.5-3.3-3.4-10.2 6.3-9.7 7.5z"/></g></svg>